<svg xmlns="http://www.w3.org/2000/svg" xmlns:xlink="http://www.w3.org/1999/xlink" xmlns:lucid="lucid" width="482" height="612"><g transform="translate(-438.9999999934297 -118.99999999160462)" lucid:page-tab-id="0_0"><path d="M0 0h1000v1000H0z" fill="#fff"/><path d="M440 126a6 6 0 0 1 6-6h468a6 6 0 0 1 6 6v598a6 6 0 0 1-6 6H446a6 6 0 0 1-6-6z" stroke="#3a414a" stroke-width="2" fill="#fff"/><path d="M440 173.33h480m-480 246.5h480" stroke="#3a414a" stroke-width="2" fill="none"/><use xlink:href="#a" transform="matrix(1,0,0,1,448,128) translate(182.78395061728395 25.22222222222222)"/><use xlink:href="#b" transform="matrix(1,0,0,1,452,181.33333333333331) translate(0 72.83333333333333)"/><use xlink:href="#c" transform="matrix(1,0,0,1,452,181.33333333333331) translate(22.962962962962962 72.83333333333333)"/><use xlink:href="#d" transform="matrix(1,0,0,1,452,181.33333333333331) translate(58.444444444444436 72.83333333333333)"/><use xlink:href="#b" transform="matrix(1,0,0,1,452,181.33333333333331) translate(0 104.83333333333333)"/><use xlink:href="#e" transform="matrix(1,0,0,1,452,181.33333333333331) translate(22.962962962962962 104.83333333333333)"/><use xlink:href="#f" transform="matrix(1,0,0,1,452,181.33333333333331) translate(104.37037037037035 104.83333333333333)"/><use xlink:href="#g" transform="matrix(1,0,0,1,452,181.33333333333331) translate(176.81481481481478 104.83333333333333)"/><use xlink:href="#h" transform="matrix(1,0,0,1,452,181.33333333333331) translate(243.3333333333333 104.83333333333333)"/><use xlink:href="#i" transform="matrix(1,0,0,1,452,181.33333333333331) translate(295.1851851851851 104.83333333333333)"/><use xlink:href="#b" transform="matrix(1,0,0,1,452,181.33333333333331) translate(0 136.83333333333334)"/><use xlink:href="#j" transform="matrix(1,0,0,1,452,181.33333333333331) translate(22.962962962962962 136.83333333333334)"/><use xlink:href="#k" transform="matrix(1,0,0,1,452,181.33333333333331) translate(101.25925925925924 136.83333333333334)"/><use xlink:href="#l" transform="matrix(1,0,0,1,452,181.33333333333331) translate(172.1481481481481 136.83333333333334)"/><use xlink:href="#b" transform="matrix(1,0,0,1,452,181.33333333333331) translate(0 168.83333333333334)"/><use xlink:href="#m" transform="matrix(1,0,0,1,452,181.33333333333331) translate(22.962962962962962 168.83333333333334)"/><use xlink:href="#f" transform="matrix(1,0,0,1,452,181.33333333333331) translate(132.5185185185185 168.83333333333334)"/><use xlink:href="#g" transform="matrix(1,0,0,1,452,181.33333333333331) translate(204.96296296296293 168.83333333333334)"/><use xlink:href="#n" transform="matrix(1,0,0,1,452,181.33333333333331) translate(271.4814814814814 168.83333333333334)"/><g><use xlink:href="#b" transform="matrix(1,0,0,1,452,427.8333333333333) translate(0 72.83333333333333)"/><use xlink:href="#o" transform="matrix(1,0,0,1,452,427.8333333333333) translate(22.962962962962962 72.83333333333333)"/><use xlink:href="#p" transform="matrix(1,0,0,1,452,427.8333333333333) translate(73.33333333333333 72.83333333333333)"/><use xlink:href="#q" transform="matrix(1,0,0,1,452,427.8333333333333) translate(89.55555555555554 72.83333333333333)"/><use xlink:href="#r" transform="matrix(1,0,0,1,452,427.8333333333333) translate(179.77777777777777 72.83333333333333)"/><use xlink:href="#s" transform="matrix(1,0,0,1,452,427.8333333333333) translate(213.7037037037037 72.83333333333333)"/><use xlink:href="#b" transform="matrix(1,0,0,1,452,427.8333333333333) translate(0 104.83333333333333)"/><use xlink:href="#o" transform="matrix(1,0,0,1,452,427.8333333333333) translate(22.962962962962962 104.83333333333333)"/><use xlink:href="#t" transform="matrix(1,0,0,1,452,427.8333333333333) translate(73.33333333333333 104.83333333333333)"/><use xlink:href="#p" transform="matrix(1,0,0,1,452,427.8333333333333) translate(116.22222222222221 104.83333333333333)"/><use xlink:href="#q" transform="matrix(1,0,0,1,452,427.8333333333333) translate(132.44444444444443 104.83333333333333)"/><use xlink:href="#u" transform="matrix(1,0,0,1,452,427.8333333333333) translate(222.66666666666663 104.83333333333333)"/><use xlink:href="#v" transform="matrix(1,0,0,1,452,427.8333333333333) translate(311.4814814814814 104.83333333333333)"/><use xlink:href="#w" transform="matrix(1,0,0,1,452,427.8333333333333) translate(366.14814814814804 104.83333333333333)"/><use xlink:href="#b" transform="matrix(1,0,0,1,452,427.8333333333333) translate(0 136.83333333333334)"/><use xlink:href="#x" transform="matrix(1,0,0,1,452,427.8333333333333) translate(22.962962962962962 136.83333333333334)"/><use xlink:href="#y" transform="matrix(1,0,0,1,452,427.8333333333333) translate(83.7037037037037 136.83333333333334)"/><use xlink:href="#z" transform="matrix(1,0,0,1,452,427.8333333333333) translate(98.5185185185185 136.83333333333334)"/><use xlink:href="#A" transform="matrix(1,0,0,1,452,427.8333333333333) translate(122.14814814814812 136.83333333333334)"/><use xlink:href="#B" transform="matrix(1,0,0,1,452,427.8333333333333) translate(216.88888888888886 136.83333333333334)"/><use xlink:href="#C" transform="matrix(1,0,0,1,452,427.8333333333333) translate(273.1111111111111 136.83333333333334)"/><use xlink:href="#D" transform="matrix(1,0,0,1,452,427.8333333333333) translate(0 168.83333333333334)"/><use xlink:href="#p" transform="matrix(1,0,0,1,452,427.8333333333333) translate(96.29629629629628 168.83333333333334)"/><use xlink:href="#q" transform="matrix(1,0,0,1,452,427.8333333333333) translate(112.5185185185185 168.83333333333334)"/><use xlink:href="#B" transform="matrix(1,0,0,1,452,427.8333333333333) translate(202.7407407407407 168.83333333333334)"/><use xlink:href="#u" transform="matrix(1,0,0,1,452,427.8333333333333) translate(258.96296296296293 168.83333333333334)"/><use xlink:href="#v" transform="matrix(1,0,0,1,452,427.8333333333333) translate(347.7777777777777 168.83333333333334)"/><use xlink:href="#w" transform="matrix(1,0,0,1,452,427.8333333333333) translate(402.44444444444434 168.83333333333334)"/><use xlink:href="#b" transform="matrix(1,0,0,1,452,427.8333333333333) translate(0 200.83333333333334)"/><use xlink:href="#E" transform="matrix(1,0,0,1,452,427.8333333333333) translate(22.962962962962962 200.83333333333334)"/><use xlink:href="#t" transform="matrix(1,0,0,1,452,427.8333333333333) translate(102.88888888888887 200.83333333333334)"/><use xlink:href="#p" transform="matrix(1,0,0,1,452,427.8333333333333) translate(145.77777777777777 200.83333333333334)"/><use xlink:href="#E" transform="matrix(1,0,0,1,452,427.8333333333333) translate(162 200.83333333333334)"/><use xlink:href="#C" transform="matrix(1,0,0,1,452,427.8333333333333) translate(241.92592592592592 200.83333333333334)"/><use xlink:href="#b" transform="matrix(1,0,0,1,452,427.8333333333333) translate(0 232.83333333333334)"/><use xlink:href="#F" transform="matrix(1,0,0,1,452,427.8333333333333) translate(22.962962962962962 232.83333333333334)"/><use xlink:href="#t" transform="matrix(1,0,0,1,452,427.8333333333333) translate(111.85185185185183 232.83333333333334)"/><use xlink:href="#p" transform="matrix(1,0,0,1,452,427.8333333333333) translate(154.7407407407407 232.83333333333334)"/><use xlink:href="#F" transform="matrix(1,0,0,1,452,427.8333333333333) translate(170.96296296296293 232.83333333333334)"/><use xlink:href="#G" transform="matrix(1,0,0,1,452,427.8333333333333) translate(259.8518518518518 232.83333333333334)"/></g><defs><path fill="#3a414a" d="M30-248c87 1 191-15 191 75 0 78-77 80-158 76V0H30v-248zm33 125c57 0 124 11 124-50 0-59-68-47-124-48v98" id="H"/><path fill="#3a414a" d="M100-194c63 0 86 42 84 106H49c0 40 14 67 53 68 26 1 43-12 49-29l28 8c-11 28-37 45-77 45C44 4 14-33 15-96c1-61 26-98 85-98zm52 81c6-60-76-77-97-28-3 7-6 17-6 28h103" id="I"/><path fill="#3a414a" d="M114-163C36-179 61-72 57 0H25l-1-190h30c1 12-1 29 2 39 6-27 23-49 58-41v29" id="J"/><path fill="#3a414a" d="M135-143c-3-34-86-38-87 0 15 53 115 12 119 90S17 21 10-45l28-5c4 36 97 45 98 0-10-56-113-15-118-90-4-57 82-63 122-42 12 7 21 19 24 35" id="K"/><path fill="#3a414a" d="M100-194c62-1 85 37 85 99 1 63-27 99-86 99S16-35 15-95c0-66 28-99 85-99zM99-20c44 1 53-31 53-75 0-43-8-75-51-75s-53 32-53 75 10 74 51 75" id="L"/><path fill="#3a414a" d="M117-194c89-4 53 116 60 194h-32v-121c0-31-8-49-39-48C34-167 62-67 57 0H25l-1-190h30c1 10-1 24 2 32 11-22 29-35 61-36" id="M"/><g id="a"><use transform="matrix(0.08641975308641973,0,0,0.08641975308641973,0,0)" xlink:href="#H"/><use transform="matrix(0.08641975308641973,0,0,0.08641975308641973,20.740740740740737,0)" xlink:href="#I"/><use transform="matrix(0.08641975308641973,0,0,0.08641975308641973,38.02469135802468,0)" xlink:href="#J"/><use transform="matrix(0.08641975308641973,0,0,0.08641975308641973,48.30864197530863,0)" xlink:href="#K"/><use transform="matrix(0.08641975308641973,0,0,0.08641975308641973,63.86419753086418,0)" xlink:href="#L"/><use transform="matrix(0.08641975308641973,0,0,0.08641975308641973,81.14814814814812,0)" xlink:href="#M"/></g><path fill="#3a414a" d="M118-107v75H92v-75H18v-26h74v-75h26v75h74v26h-74" id="N"/><use transform="matrix(0.07407407407407407,0,0,0.07407407407407407,0,0)" xlink:href="#N" id="b"/><path fill="#3a414a" d="M24-231v-30h32v30H24zM24 0v-190h32V0H24" id="O"/><path fill="#3a414a" d="M85-194c31 0 48 13 60 33l-1-100h32l1 261h-30c-2-10 0-23-3-31C134-8 116 4 85 4 32 4 16-35 15-94c0-66 23-100 70-100zm9 24c-40 0-46 34-46 75 0 40 6 74 45 74 42 0 51-32 51-76 0-42-9-74-50-73" id="P"/><path fill="#3a414a" d="M33-154v-36h34v36H33zM33 0v-36h34V0H33" id="Q"/><g id="c"><use transform="matrix(0.07407407407407407,0,0,0.07407407407407407,0,0)" xlink:href="#O"/><use transform="matrix(0.07407407407407407,0,0,0.07407407407407407,5.851851851851851,0)" xlink:href="#P"/><use transform="matrix(0.07407407407407407,0,0,0.07407407407407407,20.666666666666664,0)" xlink:href="#Q"/></g><path fill="#3a414a" d="M141-36C126-15 110 5 73 4 37 3 15-17 15-53c-1-64 63-63 125-63 3-35-9-54-41-54-24 1-41 7-42 31l-33-3c5-37 33-52 76-52 45 0 72 20 72 64v82c-1 20 7 32 28 27v20c-31 9-61-2-59-35zM48-53c0 20 12 33 32 33 41-3 63-29 60-74-43 2-92-5-92 41" id="R"/><path fill="#3a414a" d="M84 4C-5 8 30-112 23-190h32v120c0 31 7 50 39 49 72-2 45-101 50-169h31l1 190h-30c-1-10 1-25-2-33-11 22-28 36-60 37" id="S"/><path fill="#3a414a" d="M59-47c-2 24 18 29 38 22v24C64 9 27 4 27-40v-127H5v-23h24l9-43h21v43h35v23H59v120" id="T"/><path fill="#3a414a" d="M96-169c-40 0-48 33-48 73s9 75 48 75c24 0 41-14 43-38l32 2c-6 37-31 61-74 61-59 0-76-41-82-99-10-93 101-131 147-64 4 7 5 14 7 22l-32 3c-4-21-16-35-41-35" id="U"/><path fill="#3a414a" d="M210-169c-67 3-38 105-44 169h-31v-121c0-29-5-50-35-48C34-165 62-65 56 0H25l-1-190h30c1 10-1 24 2 32 10-44 99-50 107 0 11-21 27-35 58-36 85-2 47 119 55 194h-31v-121c0-29-5-49-35-48" id="V"/><g id="d"><use transform="matrix(0.07407407407407407,0,0,0.07407407407407407,0,0)" xlink:href="#R"/><use transform="matrix(0.07407407407407407,0,0,0.07407407407407407,14.814814814814813,0)" xlink:href="#S"/><use transform="matrix(0.07407407407407407,0,0,0.07407407407407407,29.629629629629626,0)" xlink:href="#T"/><use transform="matrix(0.07407407407407407,0,0,0.07407407407407407,37.03703703703703,0)" xlink:href="#L"/><use transform="matrix(0.07407407407407407,0,0,0.07407407407407407,51.85185185185185,0)" xlink:href="#O"/><use transform="matrix(0.07407407407407407,0,0,0.07407407407407407,57.703703703703695,0)" xlink:href="#M"/><use transform="matrix(0.07407407407407407,0,0,0.07407407407407407,72.5185185185185,0)" xlink:href="#U"/><use transform="matrix(0.07407407407407407,0,0,0.07407407407407407,85.85185185185183,0)" xlink:href="#J"/><use transform="matrix(0.07407407407407407,0,0,0.07407407407407407,94.66666666666664,0)" xlink:href="#I"/><use transform="matrix(0.07407407407407407,0,0,0.07407407407407407,109.48148148148145,0)" xlink:href="#V"/><use transform="matrix(0.07407407407407407,0,0,0.07407407407407407,131.6296296296296,0)" xlink:href="#I"/><use transform="matrix(0.07407407407407407,0,0,0.07407407407407407,146.4444444444444,0)" xlink:href="#M"/><use transform="matrix(0.07407407407407407,0,0,0.07407407407407407,161.2592592592592,0)" xlink:href="#T"/></g><g id="e"><use transform="matrix(0.07407407407407407,0,0,0.07407407407407407,0,0)" xlink:href="#M"/><use transform="matrix(0.07407407407407407,0,0,0.07407407407407407,14.814814814814813,0)" xlink:href="#R"/><use transform="matrix(0.07407407407407407,0,0,0.07407407407407407,29.629629629629626,0)" xlink:href="#V"/><use transform="matrix(0.07407407407407407,0,0,0.07407407407407407,51.77777777777777,0)" xlink:href="#I"/><use transform="matrix(0.07407407407407407,0,0,0.07407407407407407,66.59259259259258,0)" xlink:href="#Q"/></g><path fill="#3a414a" d="M177-190C167-65 218 103 67 71c-23-6-38-20-44-43l32-5c15 47 100 32 89-28v-30C133-14 115 1 83 1 29 1 15-40 15-95c0-56 16-97 71-98 29-1 48 16 59 35 1-10 0-23 2-32h30zM94-22c36 0 50-32 50-73 0-42-14-75-50-75-39 0-46 34-46 75s6 73 46 73" id="W"/><g id="f"><use transform="matrix(0.07407407407407407,0,0,0.07407407407407407,0,0)" xlink:href="#K"/><use transform="matrix(0.07407407407407407,0,0,0.07407407407407407,13.333333333333332,0)" xlink:href="#T"/><use transform="matrix(0.07407407407407407,0,0,0.07407407407407407,20.74074074074074,0)" xlink:href="#J"/><use transform="matrix(0.07407407407407407,0,0,0.07407407407407407,29.555555555555557,0)" xlink:href="#O"/><use transform="matrix(0.07407407407407407,0,0,0.07407407407407407,35.407407407407405,0)" xlink:href="#M"/><use transform="matrix(0.07407407407407407,0,0,0.07407407407407407,50.222222222222214,0)" xlink:href="#W"/></g><path fill="#3a414a" d="M87 75C49 33 22-17 22-94c0-76 28-126 65-167h31c-38 41-64 92-64 168S80 34 118 75H87" id="X"/><path fill="#3a414a" d="M141 0L90-78 38 0H4l68-98-65-92h35l48 74 47-74h35l-64 92 68 98h-35" id="Y"/><g id="g"><use transform="matrix(0.07407407407407407,0,0,0.07407407407407407,0,0)" xlink:href="#X"/><use transform="matrix(0.07407407407407407,0,0,0.07407407407407407,8.814814814814815,0)" xlink:href="#V"/><use transform="matrix(0.07407407407407407,0,0,0.07407407407407407,30.962962962962962,0)" xlink:href="#R"/><use transform="matrix(0.07407407407407407,0,0,0.07407407407407407,45.77777777777778,0)" xlink:href="#Y"/></g><path fill="#3a414a" d="M27 0v-27h64v-190l-56 39v-29l58-41h29v221h61V0H27" id="Z"/><path fill="#3a414a" d="M101-251c68 0 85 55 85 127S166 4 100 4C33 4 14-52 14-124c0-73 17-127 87-127zm-1 229c47 0 54-49 54-102s-4-102-53-102c-51 0-55 48-55 102 0 53 5 102 54 102" id="aa"/><g id="h"><use transform="matrix(0.07407407407407407,0,0,0.07407407407407407,0,0)" xlink:href="#Z"/><use transform="matrix(0.07407407407407407,0,0,0.07407407407407407,14.814814814814813,0)" xlink:href="#aa"/><use transform="matrix(0.07407407407407407,0,0,0.07407407407407407,29.629629629629626,0)" xlink:href="#aa"/></g><path fill="#3a414a" d="M106-169C34-169 62-67 57 0H25v-261h32l-1 103c12-21 28-36 61-36 89 0 53 116 60 194h-32v-121c2-32-8-49-39-48" id="ab"/><path fill="#3a414a" d="M33-261c38 41 65 92 65 168S71 34 33 75H2C39 34 66-17 66-93S39-220 2-261h31" id="ac"/><g id="i"><use transform="matrix(0.07407407407407407,0,0,0.07407407407407407,0,0)" xlink:href="#U"/><use transform="matrix(0.07407407407407407,0,0,0.07407407407407407,13.333333333333332,0)" xlink:href="#ab"/><use transform="matrix(0.07407407407407407,0,0,0.07407407407407407,28.148148148148145,0)" xlink:href="#R"/><use transform="matrix(0.07407407407407407,0,0,0.07407407407407407,42.96296296296296,0)" xlink:href="#J"/><use transform="matrix(0.07407407407407407,0,0,0.07407407407407407,51.77777777777777,0)" xlink:href="#K"/><use transform="matrix(0.07407407407407407,0,0,0.07407407407407407,65.11111111111111,0)" xlink:href="#ac"/></g><path fill="#3a414a" d="M24 0v-261h32V0H24" id="ad"/><g id="j"><use transform="matrix(0.07407407407407407,0,0,0.07407407407407407,0,0)" xlink:href="#I"/><use transform="matrix(0.07407407407407407,0,0,0.07407407407407407,14.814814814814813,0)" xlink:href="#V"/><use transform="matrix(0.07407407407407407,0,0,0.07407407407407407,36.96296296296296,0)" xlink:href="#R"/><use transform="matrix(0.07407407407407407,0,0,0.07407407407407407,51.77777777777777,0)" xlink:href="#O"/><use transform="matrix(0.07407407407407407,0,0,0.07407407407407407,57.62962962962962,0)" xlink:href="#ad"/><use transform="matrix(0.07407407407407407,0,0,0.07407407407407407,63.48148148148147,0)" xlink:href="#Q"/></g><g id="k"><use transform="matrix(0.07407407407407407,0,0,0.07407407407407407,0,0)" xlink:href="#I"/><use transform="matrix(0.07407407407407407,0,0,0.07407407407407407,14.814814814814813,0)" xlink:href="#V"/><use transform="matrix(0.07407407407407407,0,0,0.07407407407407407,36.96296296296296,0)" xlink:href="#R"/><use transform="matrix(0.07407407407407407,0,0,0.07407407407407407,51.77777777777777,0)" xlink:href="#O"/><use transform="matrix(0.07407407407407407,0,0,0.07407407407407407,57.62962962962962,0)" xlink:href="#ad"/></g><path fill="#3a414a" d="M145-31C134-9 116 4 85 4 32 4 16-35 15-94c0-59 17-99 70-100 32-1 48 14 60 33 0-11-1-24 2-32h30l-1 268h-32zM93-21c41 0 51-33 51-76s-8-73-50-73c-40 0-46 35-46 75s5 74 45 74" id="ae"/><g id="l"><use transform="matrix(0.07407407407407407,0,0,0.07407407407407407,0,0)" xlink:href="#X"/><use transform="matrix(0.07407407407407407,0,0,0.07407407407407407,8.814814814814815,0)" xlink:href="#S"/><use transform="matrix(0.07407407407407407,0,0,0.07407407407407407,23.629629629629623,0)" xlink:href="#M"/><use transform="matrix(0.07407407407407407,0,0,0.07407407407407407,38.44444444444444,0)" xlink:href="#O"/><use transform="matrix(0.07407407407407407,0,0,0.07407407407407407,44.29629629629629,0)" xlink:href="#ae"/><use transform="matrix(0.07407407407407407,0,0,0.07407407407407407,59.1111111111111,0)" xlink:href="#S"/><use transform="matrix(0.07407407407407407,0,0,0.07407407407407407,73.92592592592591,0)" xlink:href="#I"/><use transform="matrix(0.07407407407407407,0,0,0.07407407407407407,88.74074074074072,0)" xlink:href="#ac"/></g><g id="m"><use transform="matrix(0.07407407407407407,0,0,0.07407407407407407,0,0)" xlink:href="#R"/><use transform="matrix(0.07407407407407407,0,0,0.07407407407407407,14.814814814814813,0)" xlink:href="#P"/><use transform="matrix(0.07407407407407407,0,0,0.07407407407407407,29.629629629629626,0)" xlink:href="#P"/><use transform="matrix(0.07407407407407407,0,0,0.07407407407407407,44.44444444444444,0)" xlink:href="#J"/><use transform="matrix(0.07407407407407407,0,0,0.07407407407407407,53.25925925925926,0)" xlink:href="#I"/><use transform="matrix(0.07407407407407407,0,0,0.07407407407407407,68.07407407407408,0)" xlink:href="#K"/><use transform="matrix(0.07407407407407407,0,0,0.07407407407407407,81.4074074074074,0)" xlink:href="#K"/><use transform="matrix(0.07407407407407407,0,0,0.07407407407407407,94.74074074074073,0)" xlink:href="#Q"/></g><path fill="#3a414a" d="M101-251c82-7 93 87 43 132L82-64C71-53 59-42 53-27h129V0H18c2-99 128-94 128-182 0-28-16-43-45-43s-46 15-49 41l-32-3c6-41 34-60 81-64" id="af"/><path fill="#3a414a" d="M54-142c48-35 137-8 131 61C196 18 31 33 14-55l32-4c7 23 22 37 52 37 35-1 51-22 54-58 4-55-73-65-99-34H22l8-134h141v27H59" id="ag"/><path fill="#3a414a" d="M110-160c48 1 74 30 74 79 0 53-28 85-80 85-65 0-83-55-86-122-5-90 50-162 133-122 14 7 22 21 27 39l-31 6c-5-40-67-38-82-6-9 19-15 44-15 74 11-20 30-34 60-33zm-7 138c34 0 49-23 49-58s-16-56-50-56c-29 0-50 16-49 49 1 36 15 65 50 65" id="ah"/><g id="n"><use transform="matrix(0.07407407407407407,0,0,0.07407407407407407,0,0)" xlink:href="#af"/><use transform="matrix(0.07407407407407407,0,0,0.07407407407407407,14.814814814814813,0)" xlink:href="#ag"/><use transform="matrix(0.07407407407407407,0,0,0.07407407407407407,29.629629629629626,0)" xlink:href="#ah"/><use transform="matrix(0.07407407407407407,0,0,0.07407407407407407,44.44444444444444,0)" xlink:href="#ac"/></g><path fill="#3a414a" d="M143 4C61 4 22-44 18-125c-5-107 100-154 193-111 17 8 29 25 37 43l-32 9c-13-25-37-40-76-40-61 0-88 39-88 99 0 61 29 100 91 101 35 0 62-11 79-27v-45h-74v-28h105v86C228-13 192 4 143 4" id="ai"/><g id="o"><use transform="matrix(0.07407407407407407,0,0,0.07407407407407407,0,0)" xlink:href="#ai"/><use transform="matrix(0.07407407407407407,0,0,0.07407407407407407,20.74074074074074,0)" xlink:href="#I"/><use transform="matrix(0.07407407407407407,0,0,0.07407407407407407,35.55555555555556,0)" xlink:href="#T"/></g><path fill="#3a414a" d="M16-82v-28h88v28H16" id="aj"/><use transform="matrix(0.07407407407407407,0,0,0.07407407407407407,0,0)" xlink:href="#aj" id="p"/><g id="q"><use transform="matrix(0.07407407407407407,0,0,0.07407407407407407,0,0)" xlink:href="#J"/><use transform="matrix(0.07407407407407407,0,0,0.07407407407407407,8.814814814814815,0)" xlink:href="#I"/><use transform="matrix(0.07407407407407407,0,0,0.07407407407407407,23.629629629629623,0)" xlink:href="#T"/><use transform="matrix(0.07407407407407407,0,0,0.07407407407407407,31.03703703703703,0)" xlink:href="#S"/><use transform="matrix(0.07407407407407407,0,0,0.07407407407407407,45.85185185185185,0)" xlink:href="#J"/><use transform="matrix(0.07407407407407407,0,0,0.07407407407407407,54.666666666666664,0)" xlink:href="#M"/><use transform="matrix(0.07407407407407407,0,0,0.07407407407407407,69.48148148148148,0)" xlink:href="#K"/></g><g id="r"><use transform="matrix(0.07407407407407407,0,0,0.07407407407407407,0,0)" xlink:href="#R"/><use transform="matrix(0.07407407407407407,0,0,0.07407407407407407,14.814814814814813,0)" xlink:href="#ad"/><use transform="matrix(0.07407407407407407,0,0,0.07407407407407407,20.666666666666664,0)" xlink:href="#ad"/></g><path fill="#3a414a" d="M115-194c55 1 70 41 70 98S169 2 115 4C84 4 66-9 55-30l1 105H24l-1-265h31l2 30c10-21 28-34 59-34zm-8 174c40 0 45-34 45-75s-6-73-45-74c-42 0-51 32-51 76 0 43 10 73 51 73" id="ak"/><g id="s"><use transform="matrix(0.07407407407407407,0,0,0.07407407407407407,0,0)" xlink:href="#ak"/><use transform="matrix(0.07407407407407407,0,0,0.07407407407407407,14.814814814814813,0)" xlink:href="#I"/><use transform="matrix(0.07407407407407407,0,0,0.07407407407407407,29.629629629629626,0)" xlink:href="#J"/><use transform="matrix(0.07407407407407407,0,0,0.07407407407407407,38.44444444444444,0)" xlink:href="#K"/><use transform="matrix(0.07407407407407407,0,0,0.07407407407407407,51.77777777777777,0)" xlink:href="#L"/><use transform="matrix(0.07407407407407407,0,0,0.07407407407407407,66.59259259259258,0)" xlink:href="#M"/><use transform="matrix(0.07407407407407407,0,0,0.07407407407407407,81.40740740740739,0)" xlink:href="#K"/></g><path fill="#3a414a" d="M0 4l72-265h28L28 4H0" id="al"/><g id="t"><use transform="matrix(0.07407407407407407,0,0,0.07407407407407407,0,0)" xlink:href="#al"/><use transform="matrix(0.07407407407407407,0,0,0.07407407407407407,7.4074074074074066,0)" xlink:href="#Q"/><use transform="matrix(0.07407407407407407,0,0,0.07407407407407407,14.814814814814813,0)" xlink:href="#O"/><use transform="matrix(0.07407407407407407,0,0,0.07407407407407407,20.666666666666664,0)" xlink:href="#P"/></g><g id="u"><use transform="matrix(0.07407407407407407,0,0,0.07407407407407407,0,0)" xlink:href="#ak"/><use transform="matrix(0.07407407407407407,0,0,0.07407407407407407,14.814814814814813,0)" xlink:href="#I"/><use transform="matrix(0.07407407407407407,0,0,0.07407407407407407,29.629629629629626,0)" xlink:href="#J"/><use transform="matrix(0.07407407407407407,0,0,0.07407407407407407,38.44444444444444,0)" xlink:href="#K"/><use transform="matrix(0.07407407407407407,0,0,0.07407407407407407,51.77777777777777,0)" xlink:href="#L"/><use transform="matrix(0.07407407407407407,0,0,0.07407407407407407,66.59259259259258,0)" xlink:href="#M"/></g><path fill="#3a414a" d="M206 0h-36l-40-164L89 0H53L-1-190h32L70-26l43-164h34l41 164 42-164h31" id="am"/><g id="v"><use transform="matrix(0.07407407407407407,0,0,0.07407407407407407,0,0)" xlink:href="#am"/><use transform="matrix(0.07407407407407407,0,0,0.07407407407407407,19.185185185185183,0)" xlink:href="#O"/><use transform="matrix(0.07407407407407407,0,0,0.07407407407407407,25.037037037037035,0)" xlink:href="#T"/><use transform="matrix(0.07407407407407407,0,0,0.07407407407407407,32.44444444444444,0)" xlink:href="#ab"/></g><g id="w"><use transform="matrix(0.07407407407407407,0,0,0.07407407407407407,0,0)" xlink:href="#O"/><use transform="matrix(0.07407407407407407,0,0,0.07407407407407407,5.851851851851851,0)" xlink:href="#P"/></g><g id="x"><use transform="matrix(0.07407407407407407,0,0,0.07407407407407407,0,0)" xlink:href="#H"/><use transform="matrix(0.07407407407407407,0,0,0.07407407407407407,17.77777777777778,0)" xlink:href="#L"/><use transform="matrix(0.07407407407407407,0,0,0.07407407407407407,32.592592592592595,0)" xlink:href="#K"/><use transform="matrix(0.07407407407407407,0,0,0.07407407407407407,45.925925925925924,0)" xlink:href="#T"/></g><use transform="matrix(0.07407407407407407,0,0,0.07407407407407407,0,0)" xlink:href="#al" id="y"/><use transform="matrix(0.07407407407407407,0,0,0.07407407407407407,0,0)" xlink:href="#aj" id="z"/><g id="A"><use transform="matrix(0.07407407407407407,0,0,0.07407407407407407,0,0)" xlink:href="#U"/><use transform="matrix(0.07407407407407407,0,0,0.07407407407407407,13.333333333333332,0)" xlink:href="#J"/><use transform="matrix(0.07407407407407407,0,0,0.07407407407407407,22.148148148148145,0)" xlink:href="#I"/><use transform="matrix(0.07407407407407407,0,0,0.07407407407407407,36.96296296296296,0)" xlink:href="#R"/><use transform="matrix(0.07407407407407407,0,0,0.07407407407407407,51.77777777777777,0)" xlink:href="#T"/><use transform="matrix(0.07407407407407407,0,0,0.07407407407407407,59.185185185185176,0)" xlink:href="#I"/><use transform="matrix(0.07407407407407407,0,0,0.07407407407407407,73.99999999999999,0)" xlink:href="#K"/></g><g id="B"><use transform="matrix(0.07407407407407407,0,0,0.07407407407407407,0,0)" xlink:href="#M"/><use transform="matrix(0.07407407407407407,0,0,0.07407407407407407,14.814814814814813,0)" xlink:href="#I"/><use transform="matrix(0.07407407407407407,0,0,0.07407407407407407,29.629629629629626,0)" xlink:href="#am"/></g><g id="C"><use transform="matrix(0.07407407407407407,0,0,0.07407407407407407,0,0)" xlink:href="#ak"/><use transform="matrix(0.07407407407407407,0,0,0.07407407407407407,14.814814814814813,0)" xlink:href="#I"/><use transform="matrix(0.07407407407407407,0,0,0.07407407407407407,29.629629629629626,0)" xlink:href="#J"/><use transform="matrix(0.07407407407407407,0,0,0.07407407407407407,38.44444444444444,0)" xlink:href="#K"/><use transform="matrix(0.07407407407407407,0,0,0.07407407407407407,51.77777777777777,0)" xlink:href="#L"/><use transform="matrix(0.07407407407407407,0,0,0.07407407407407407,66.59259259259258,0)" xlink:href="#M"/></g><g id="E"><use transform="matrix(0.07407407407407407,0,0,0.07407407407407407,0,0)" xlink:href="#P"/><use transform="matrix(0.07407407407407407,0,0,0.07407407407407407,14.814814814814813,0)" xlink:href="#I"/><use transform="matrix(0.07407407407407407,0,0,0.07407407407407407,29.629629629629626,0)" xlink:href="#ad"/><use transform="matrix(0.07407407407407407,0,0,0.07407407407407407,35.48148148148148,0)" xlink:href="#I"/><use transform="matrix(0.07407407407407407,0,0,0.07407407407407407,50.29629629629629,0)" xlink:href="#T"/><use transform="matrix(0.07407407407407407,0,0,0.07407407407407407,57.703703703703695,0)" xlink:href="#I"/></g><g id="F"><use transform="matrix(0.07407407407407407,0,0,0.07407407407407407,0,0)" xlink:href="#S"/><use transform="matrix(0.07407407407407407,0,0,0.07407407407407407,14.814814814814813,0)" xlink:href="#ak"/><use transform="matrix(0.07407407407407407,0,0,0.07407407407407407,29.629629629629626,0)" xlink:href="#P"/><use transform="matrix(0.07407407407407407,0,0,0.07407407407407407,44.44444444444444,0)" xlink:href="#R"/><use transform="matrix(0.07407407407407407,0,0,0.07407407407407407,59.25925925925925,0)" xlink:href="#T"/><use transform="matrix(0.07407407407407407,0,0,0.07407407407407407,66.66666666666666,0)" xlink:href="#I"/></g><g id="G"><use transform="matrix(0.07407407407407407,0,0,0.07407407407407407,0,0)" xlink:href="#ak"/><use transform="matrix(0.07407407407407407,0,0,0.07407407407407407,14.814814814814813,0)" xlink:href="#I"/><use transform="matrix(0.07407407407407407,0,0,0.07407407407407407,29.629629629629626,0)" xlink:href="#J"/><use transform="matrix(0.07407407407407407,0,0,0.07407407407407407,38.44444444444444,0)" xlink:href="#K"/><use transform="matrix(0.07407407407407407,0,0,0.07407407407407407,51.77777777777777,0)" xlink:href="#L"/><use transform="matrix(0.07407407407407407,0,0,0.07407407407407407,66.59259259259258,0)" xlink:href="#M"/></g></defs></g></svg>